# AST/ASF file generated using VICON BodyLanguage
# -----------------------------------------------
:version 1.10
:name VICON
:units
  mass 1.0
  length 0.45
  angle deg
:documentation
   .ast/.asf automatically generated from VICON data using
   VICON BodyBuilder and BodyLanguage model FoxedUp or BRILLIANT.MOD
:root
   order TX TY TZ RX RY RZ
   axis XYZ
   position 0 0 0  
   orientation 0 0 0 
:bonedata
  begin
     id 1 
     name lhipjoint
     direction 0.561001 -0.76473 0.316963 
     length 2.4722 
     axis 0 0 0  XYZ
  end
  begin
     id 2 
     name lfemur
     direction 0.34202 -0.939693 0  
     length 7.59403  
     axis 0 0 20  XYZ
    dof rx ry rz
    limits (-160.0 20.0)
           (-70.0 70.0)
           (-60.0 70.0)
  end
  begin
     id 3 
     name ltibia
     direction 0.34202 -0.939693 0   
     length 7.89655   
     axis 0 0 20   XYZ
    dof rx
    limits (-10.0 170.0)
  end
  begin
     id 4 
     name lfoot
     direction 0.061296 -0.168409 0.98381   
     length 2.73287   
     axis -90 7.62852e-016 20   XYZ
    dof rx rz
    limits (-45.0 90.0)
           (-70.0 20.0)
  end
  begin
     id 5 
     name ltoes
     direction 1.53547e-011 -4.21984e-011 1   
     length 1.37057   
     axis -90 7.62852e-016 20   XYZ
    dof rx
    limits (-90.0 20.0)
  end
  begin
     id 6 
     name rhipjoint
     direction -0.559611 -0.765599 0.317323   
     length 2.46939  
     axis 0 0 0  XYZ 
  end
  begin
     id 7 
     name rfemur
     direction -0.34202 -0.939693 0   
     length 7.53712   
     axis 0 0 -20   XYZ
    dof rx ry rz
    limits (-160.0 20.0)
           (-70.0 70.0)
           (-70.0 60.0)
  end
  begin
     id 8 
     name rtibia
     direction -0.34202 -0.939693 0   
     length 8.12549   
     axis 0 0 -20   XYZ
    dof rx
    limits (-10.0 170.0)
 end
 begin
     id 9 
     name rfoot
     direction -0.066984 -0.184037 0.980634   
     length 2.67541  
     axis -90 -7.62852e-016 -20   XYZ
    dof rx rz
    limits (-45.0 90.0)
           (-20.0 70.0)
  end
  begin
     id 10 
     name rtoes
     direction -1.53549e-011 -4.21786e-011 1   
     length 1.34085   
     axis -90 -7.62852e-016 -20   XYZ
    dof rx
    limits (-90.0 20.0)
  end
  begin
     id 11 
     name lowerback
     direction -0.0522728 0.992594 -0.109658   
     length 2.05633   
     axis 0 0 0   XYZ
    dof rx ry rz
    limits (-20.0 45.0)
           (-30.0 30.0)
           (-30.0 30.0)
  end
  begin
     id 12 
     name upperback
     direction 0.00589338 0.999977 0.00335704   
     length 2.05845   
     axis 0 0 0   XYZ
    dof rx ry rz
    limits (-20.0 45.0)
           (-30.0 30.0)
           (-30.0 30.0)
  end
  begin
     id 13 
     name thorax
     direction 0.0292928 0.998059 0.0549487   
     length 2.09281   
     axis 0 0 0   XYZ
    dof rx ry rz
    limits (-20.0 45.0)
           (-30.0 30.0)
           (-30.0 30.0)
  end
  begin
     id 14 
     name lowerneck
     direction 0.0356368 0.980775 0.191858   
     length 1.84767   
     axis 0 0 0   XYZ
    dof rx ry rz
    limits (-20.0 45.0)
           (-30.0 30.0)
           (-30.0 30.0)
  end
  begin
     id 15 
     name upperneck
     direction -0.0227605 0.98931 -0.14404   
     length 1.89582   
     axis 0 0 0   XYZ
    dof rx ry rz
    limits (-20.0 45.0)
           (-30.0 30.0)
           (-30.0 30.0)
  end
  begin
     id 16
     name head
     direction -0.00932985 0.997511 -0.0698904  
     length 1.90213  
     axis 0 0 0   XYZ
    dof rx ry rz
    limits (-20.0 45.0)
           (-30.0 30.0)
           (-30.0 30.0)
  end
  begin
     id 17 
     name lclavicle
     direction 0.873442 0.479511 0.0846686  
     length 3.41193  
     axis 0 0 0   XYZ
    dof ry rz
    limits (-20.0 10.0)
           (0.0 20.0)
  end
  begin
     id 18 
     name lhumerus
     direction 1 -4.4897e-011 -5.62117e-018   
     length 5.59864   
     axis 180 -30 -90   XYZ
    dof rx ry rz
    limits (-60.0 90.0)
           (-90.0 90.0)
           (-90.0 90.0)
  end
  begin
     id 19
     name lradius
     direction 1 -4.48966e-011 -6.26295e-027   
     length 3.59542   
     axis 180 -30 -90   XYZ
    dof rx
    limits (-10.0 170.0)
  end
  begin
     id 20
     name lwrist
     direction 1 -4.48947e-011 -1.74096e-026   
     length 1.79771   
     axis 1.04567e-014 90 90   XYZ
    dof ry
    limits (-180.0 0.0)
 end
  begin
     id 21 
     name lhand
     direction 1 -4.49085e-011 -3.48469e-026   
     length 0.572014   
     axis 2.22196e-014 90 90   XYZ
    dof rx rz
    limits (-90.0 90.0)
           (-45.0 45.0)
  end
  begin
     id 22 
     name lfingers
     direction 1 -4.48884e-011 -6.96135e-026   
     length 0.461173   
     axis 4.44383e-014 90 90   XYZ
    dof rx
    limits (0.0 90.0)
  end
  begin
     id 23
     name lthumb
     direction 0.707107 -6.34976e-011 0.707107   
     length 0.662154   
     axis -90 45 -5.4397e-014   XYZ
    dof rx rz
    limits (-45.0 45.0)
           (-45.0 45.0)
  end
  begin
     id 24 
     name rclavicle
     direction -0.890242 0.443271 0.104786   
     length 3.46753  
     axis 0 0 0   XYZ 
    dof ry rz
    limits (-10.0 20.0)
           (-20.0 0.0)
  end
  begin
     id 25 
     name rhumerus
     direction -1 -4.48963e-011 -5.41723e-018  
     length 5.8094   
     axis 180 30 90   XYZ
    dof rx ry rz
    limits (-90.0 60.0)
           (-90.0 90.0)
           (-90.0 90.0)
  end
  begin
     id 26 
     name rradius
     direction -1 -4.48958e-011 -6.51059e-027   
     length 3.66953   
     axis 180 30 90   XYZ
    dof rx
    limits (-10.0 170.0)
  end
  begin
     id 27 
     name rwrist
     direction -1 -4.48975e-011 -1.74124e-026   
     length 1.83476   
     axis 1.04567e-014 -90 -90   XYZ
    dof ry
    limits (-180.0 0.0)
  end
  begin
     id 28
     name rhand
     direction -1 -4.49013e-011 -3.48326e-026   
     length 0.57843   
     axis 2.22196e-014 -90 -90   XYZ
    dof rx rz
    limits (-90.0 90.0)
           (-45.0 45.0)
  end
  begin
     id 29
     name rfingers
     direction -1 -4.49023e-011 -6.9669e-026   
     length 0.466345   
     axis 4.44383e-014 -90 -90   XYZ
    dof rx
    limits (0.0 90.0)
  end
  begin
     id 30
     name rthumb
     direction -0.707107 -6.34926e-011 0.707107   
     length 0.669581   
     axis -90 -45 5.4397e-014   XYZ
    dof rx rz
    limits (-45.0 45.0)
           (-45.0 45.0)
  end
:hierarchy
  begin
    root lhipjoint rhipjoint lowerback
    lhipjoint lfemur
    lfemur ltibia
    ltibia lfoot
    lfoot ltoes
    rhipjoint rfemur
    rfemur rtibia
    rtibia rfoot
    rfoot rtoes
    lowerback upperback
    upperback thorax
    thorax lowerneck lclavicle rclavicle
    lowerneck upperneck
    upperneck head
    lclavicle lhumerus
    lhumerus lradius
    lradius lwrist
    lwrist lhand lthumb
    lhand lfingers
    rclavicle rhumerus
    rhumerus rradius
    rradius rwrist
    rwrist rhand rthumb
    rhand rfingers
  end

#!OML:ASF H:\SkateBoarding\Project 1\Capture day 1\Session 1\Skater.ASF
:FULLY-SPECIFIED
:DEGREES
210
root -1.29269 18.953 34.4559 4.07079 115.001 6.69992
lowerback 9.2044 -1.66388 -4.36089
upperback -0.842944 -2.71012 -0.273834
thorax -5.86404 -1.19276 2.54291
lowerneck -9.76159 -8.49669 -5.57924
upperneck 44.1892 -7.31622 -2.83293
head 18.4082 -3.30523 -1.32872
rclavicle 2.48108e-014 6.36111e-015
rhumerus -45.0108 -10.3751 -69.4579
rradius 30.6812
rwrist -4.01631
rhand -18.8216 -25.6125
rfingers 7.12502
rthumb 7.47736 -55.4604
lclavicle 2.48108e-014 6.36111e-015
lhumerus -36.7316 3.25159 86.3413
lradius 31.5982
lwrist 17.5527
lhand -21.1275 14.0452
lfingers 7.12502
lthumb 5.2512 43.9601
rfemur -9.20136 4.61742 17.5371
rtibia 45.8621
rfoot -13.6271 23.582
rtoes 17.8112
lfemur -13.8429 -12.684 -11.6364
ltibia 54.0674
lfoot -41.4412 1.86099
ltoes -28.6606
211
root -1.19054 18.9464 34.7086 4.0732 114.969 6.87451
lowerback 9.21002 -1.65745 -4.31354
upperback -0.849455 -2.69496 -0.232485
thorax -5.87526 -1.18605 2.55805
lowerneck -9.79107 -8.50209 -5.59696
upperneck 44.1504 -7.33844 -2.81841
head 18.3945 -3.31758 -1.32333
rclavicle 5.96354e-015 -5.56597e-015
rhumerus -44.9931 -10.5708 -69.4775
rradius 30.5203
rwrist -3.85124
rhand -18.6611 -25.713
rfingers 7.12502
rthumb 7.63226 -55.5553
lclavicle 5.96354e-015 -5.56597e-015
lhumerus -36.8702 3.15095 86.5183
lradius 31.6516
lwrist 17.5507
lhand -20.8407 14.0556
lfingers 7.12502
lthumb 5.52817 43.9635
rfemur -9.09039 4.59386 17.5295
rtibia 45.8377
rfoot -13.3832 23.6147
rtoes 17.9713
lfemur -13.7905 -12.67 -11.6544
ltibia 54.2031
lfoot -41.4705 1.88225
ltoes -28.6609
212
root -1.08811 18.9397 34.9609 4.08129 114.945 7.0537
lowerback 9.21431 -1.65667 -4.26773
upperback -0.856635 -2.68741 -0.190996
thorax -5.88579 -1.18304 2.57519
lowerneck -9.8185 -8.50654 -5.61487
upperneck 44.1201 -7.35641 -2.80661
head 18.3854 -3.32815 -1.3186
rclavicle -7.19352e-015 2.46493e-014
rhumerus -44.9819 -10.7437 -69.5066
rradius 30.3737
rwrist -3.70369
rhand -18.5017 -25.8045
rfingers 7.12502
rthumb 7.78612 -55.6411
lclavicle -7.19352e-015 2.46493e-014
lhumerus -37.0063 3.05652 86.6858
lradius 31.6968
lwrist 17.5394
lhand -20.5959 14.0801
lfingers 7.12502
lthumb 5.76447 43.9817
rfemur -8.98511 4.56292 17.5278
rtibia 45.8227
rfoot -13.1557 23.6356
rtoes 18.1092
lfemur -13.7419 -12.6589 -11.6658
ltibia 54.3363
lfoot -41.4909 1.90822
ltoes -28.6761
213
root -0.985278 18.9329 35.2127 4.08141 114.924 7.22422
lowerback 9.21845 -1.66136 -4.23143
upperback -0.865244 -2.68821 -0.149687
thorax -5.89674 -1.18379 2.59861
lowerneck -9.84112 -8.5094 -5.63842
upperneck 44.0972 -7.36838 -2.79606
head 18.38 -3.33697 -1.31243
rclavicle 4.1136e-014 3.18055e-015
rhumerus -44.9802 -10.8912 -69.5422
rradius 30.2432
rwrist -3.57157
rhand -18.3352 -25.8845
rfingers 7.12502
rthumb 7.9468 -55.7152
lclavicle 4.1136e-014 3.18055e-015
lhumerus -37.1445 2.97925 86.8402
lradius 31.7348
lwrist 17.5174
lhand -20.3877 14.1143
lfingers 7.12502
lthumb 5.96551 44.0103
rfemur -8.88232 4.53025 17.5261
rtibia 45.817
rfoot -12.943 23.6485
rtoes 18.227
lfemur -13.693 -12.6463 -11.6772
ltibia 54.4673
lfoot -41.507 1.9311
ltoes -28.6883
214
root -0.882047 18.9258 35.4641 4.07587 114.911 7.38568
lowerback 9.21726 -1.66985 -4.20189
upperback -0.873966 -2.69469 -0.111561
thorax -5.90424 -1.18724 2.62304
lowerneck -9.86556 -8.51116 -5.65257
upperneck 44.082 -7.37691 -2.79273
head 18.3785 -3.34343 -1.31094
rclavicle -3.00662e-015 2.38542e-015
rhumerus -44.989 -11.027 -69.584
rradius 30.1286
rwrist -3.45751
rhand -18.1702 -25.959
rfingers 7.12502
rthumb 8.10611 -55.7835
lclavicle -3.00662e-015 2.38542e-015
lhumerus -37.2756 2.9136 86.9786
lradius 31.7586
lwrist 17.4865
lhand -20.2295 14.1456
lfingers 7.12502
lthumb 6.11827 44.0373
rfemur -8.78396 4.49766 17.5255
rtibia 45.8199
rfoot -12.7398 23.6624
rtoes 18.333
lfemur -13.6475 -12.6329 -11.6873
ltibia 54.5971
lfoot -41.5213 1.95292
ltoes -28.707
215
root -0.778455 18.9184 35.7152 4.07077 114.902 7.54567
lowerback 9.21302 -1.67794 -4.1718
upperback -0.882625 -2.70078 -0.080759
thorax -5.91034 -1.19064 2.63931
lowerneck -9.88751 -8.51705 -5.65753
upperneck 44.0716 -7.39419 -2.78939
head 18.3787 -3.35168 -1.31259
rclavicle -2.6339e-015 -3.26007e-014
rhumerus -45.0111 -11.1713 -69.6285
rradius 30.0241
rwrist -3.35097
rhand -18.0056 -26.0302
rfingers 7.12502
rthumb 8.26491 -55.8485
lclavicle -2.6339e-015 -3.26007e-014
lhumerus -37.3977 2.84524 87.098
lradius 31.7662
lwrist 17.4547
lhand -20.1216 14.161
lfingers 7.12502
lthumb 6.22239 44.0496
rfemur -8.68917 4.47005 17.53
rtibia 45.8309
rfoot -12.5536 23.6769
rtoes 18.4228
lfemur -13.6037 -12.6186 -11.6924
ltibia 54.7264
lfoot -41.5354 1.967
ltoes -28.7211
216
root -0.674299 18.9108 35.9659 4.04149 114.895 7.67971
lowerback 9.2049 -1.6867 -4.15313
upperback -0.889666 -2.70923 -0.0592444
thorax -5.91232 -1.19506 2.65236
lowerneck -9.90756 -8.52402 -5.65481
upperneck 44.0638 -7.41526 -2.786
head 18.3794 -3.36012 -1.31618
rclavicle 1.0958e-014 2.70347e-014
rhumerus -45.0438 -11.3238 -69.6732
rradius 29.9272
rwrist -3.25061
rhand -17.8422 -26.1017
rfingers 7.12502
rthumb 8.42265 -55.9138
lclavicle 1.0958e-014 2.70347e-014
lhumerus -37.5102 2.78086 87.1961
lradius 31.7589
lwrist 17.4273
lhand -20.0778 14.1566
lfingers 7.12502
lthumb 6.26472 44.0439
rfemur -8.5931 4.44427 17.5272
rtibia 45.8494
rfoot -12.3755 23.6962
rtoes 18.5012
lfemur -13.5562 -12.6073 -11.7061
ltibia 54.8549
lfoot -41.5524 1.97717
ltoes -28.7301
217
root -0.5697 18.9028 36.2164 3.99916 114.889 7.799
lowerback 9.19399 -1.69833 -4.14508
upperback -0.896567 -2.72282 -0.0433463
thorax -5.912 -1.2018 2.66605
lowerneck -9.92476 -8.52986 -5.65048
upperneck 44.0564 -7.43681 -2.77919
head 18.3795 -3.36811 -1.31842
rclavicle -4.49999e-014 -1.19271e-014
rhumerus -45.0842 -11.4692 -69.7244
rradius 29.8379
rwrist -3.16165
rhand -17.6874 -26.182
rfingers 7.12502
rthumb 8.57197 -55.988
lclavicle -4.49999e-014 -1.19271e-014
lhumerus -37.6154 2.73744 87.2661
lradius 31.7366
lwrist 17.3935
lhand -20.0868 14.1232
lfingers 7.12502
lthumb 6.25598 44.0108
rfemur -8.49816 4.42067 17.5242
rtibia 45.8745
rfoot -12.202 23.7225
rtoes 18.5769
lfemur -13.5093 -12.5934 -11.7195
ltibia 54.9847
lfoot -41.567 1.97697
ltoes -28.7349
218
root -0.464707 18.8945 36.4667 3.94726 114.885 7.90651
lowerback 9.18087 -1.71026 -4.1433
upperback -0.903159 -2.73777 -0.0346057
thorax -5.91007 -1.20912 2.67583
lowerneck -9.94046 -8.53728 -5.64234
upperneck 44.0497 -7.46357 -2.76928
head 18.3797 -3.37722 -1.32076
rclavicle -2.88238e-014 -1.74931e-014
rhumerus -45.1357 -11.6157 -69.7784
rradius 29.7557
rwrist -3.08395
rhand -17.536 -26.2681
rfingers 7.12502
rthumb 8.71816 -56.068
lclavicle -2.88238e-014 -1.74931e-014
lhumerus -37.7109 2.70455 87.3098
lradius 31.6998
lwrist 17.3515
lhand -20.1502 14.0632
lfingers 7.12502
lthumb 6.19481 43.9527
rfemur -8.40445 4.39806 17.5215
rtibia 45.9049
rfoot -12.0342 23.7526
rtoes 18.6534
lfemur -13.4642 -12.5776 -11.7306
ltibia 55.1158
lfoot -41.5783 1.96958
ltoes -28.7378
219
root -0.359404 18.8859 36.7168 3.9032 114.88 8.02048
lowerback 9.16314 -1.7241 -4.14026
upperback -0.909057 -2.75509 -0.0302005
thorax -5.90489 -1.21782 2.68045
lowerneck -9.95456 -8.54524 -5.63441
upperneck 44.0439 -7.49258 -2.75651
head 18.3802 -3.38698 -1.32214
rclavicle -4.2366e-014 -3.33958e-014
rhumerus -45.1933 -11.7598 -69.8365
rradius 29.6775
rwrist -3.01343
rhand -17.3867 -26.3639
rfingers 7.12502
rthumb 8.86223 -56.1578
lclavicle -4.2366e-014 -3.33958e-014
lhumerus -37.7959 2.6869 87.3246
lradius 31.6498
lwrist 17.3009
lhand -20.2469 13.9892
lfingers 7.12502
lthumb 6.10144 43.8814
rfemur -8.31324 4.37264 17.5274
rtibia 45.9381
rfoot -11.872 23.7837
rtoes 18.7266
lfemur -13.4224 -12.5598 -11.7303
ltibia 55.2496
lfoot -41.5844 1.94938
ltoes -28.7368
220
root -0.253587 18.877 36.9663 3.85437 114.87 8.13354
lowerback 9.14456 -1.73947 -4.1381
upperback -0.913106 -2.77469 -0.0303312
thorax -5.89728 -1.22775 2.68103
lowerneck -9.9672 -8.55251 -5.63137
upperneck 44.0385 -7.52173 -2.73833
head 18.3813 -3.397 -1.32018
rclavicle 3.64273e-014 3.18055e-015
rhumerus -45.2584 -11.8905 -69.9002
rradius 29.6043
rwrist -2.95425
rhand -17.2394 -26.4624
rfingers 7.12502
rthumb 9.00433 -56.2502
lclavicle 3.64273e-014 3.18055e-015
lhumerus -37.8721 2.69368 87.309
lradius 31.5855
lwrist 17.2297
lhand -20.3754 13.9085
lfingers 7.12502
lthumb 5.9774 43.8041
rfemur -8.21649 4.3465 17.5361
rtibia 45.9721
rfoot -11.7148 23.815
rtoes 18.7944
lfemur -13.3738 -12.5389 -11.7274
ltibia 55.3846
lfoot -41.5871 1.92967
ltoes -28.7394
221
root -0.147175 18.8679 37.2152 3.80477 114.854 8.24756
lowerback 9.11967 -1.75581 -4.13653
upperback -0.915855 -2.79545 -0.0334723
thorax -5.88475 -1.23842 2.67863
lowerneck -9.97496 -8.56036 -5.6347
upperneck 44.0339 -7.55068 -2.71859
head 18.3823 -3.40781 -1.31622
rclavicle 2.12451e-014 -2.46493e-014
rhumerus -45.3344 -12.0044 -69.9679
rradius 29.5392
rwrist -2.90493
rhand -17.0894 -26.5654
rfingers 7.12502
rthumb 9.14912 -56.3469
lclavicle 2.12451e-014 -2.46493e-014
lhumerus -37.9415 2.72342 87.2653
lradius 31.5108
lwrist 17.1396
lhand -20.4943 13.83
lfingers 7.12502
lthumb 5.86258 43.7289
rfemur -8.11485 4.31595 17.5484
rtibia 46.0048
rfoot -11.5632 23.8458
rtoes 18.8672
lfemur -13.3205 -12.5121 -11.7198
ltibia 55.5201
lfoot -41.5855 1.9049
ltoes -28.743
222
root -0.0401947 18.8585 37.4633 3.74859 114.834 8.35538
lowerback 9.08763 -1.772 -4.13529
upperback -0.918172 -2.81594 -0.0411053
thorax -5.86796 -1.24914 2.67134
lowerneck -9.9777 -8.56955 -5.64428
upperneck 44.0313 -7.5801 -2.69787
head 18.384 -3.41962 -1.31068
rclavicle -3.30976e-014 8.74653e-015
rhumerus -45.4245 -12.1042 -70.0366
rradius 29.4816
rwrist -2.86502
rhand -16.9354 -26.6755
rfingers 7.12502
rthumb 9.29768 -56.4505
lclavicle -3.30976e-014 8.74653e-015
lhumerus -38.0054 2.77238 87.1961
lradius 31.4271
lwrist 17.0341
lhand -20.604 13.7612
lfingers 7.12502
lthumb 5.75671 43.663
rfemur -8.00855 4.28093 17.5594
rtibia 46.0361
rfoot -11.4126 23.8777
rtoes 18.9408
lfemur -13.2615 -12.4799 -11.7126
ltibia 55.655
lfoot -41.581 1.87967
ltoes -28.7527
223
root 0.0673299 18.8492 37.7107 3.69894 114.807 8.47072
lowerback 9.04972 -1.78816 -4.13314
upperback -0.919847 -2.83601 -0.049448
thorax -5.84726 -1.25981 2.66245
lowerneck -9.97945 -8.57967 -5.66171
upperneck 44.0305 -7.60926 -2.67571
head 18.3872 -3.43244 -1.30317
rclavicle -5.11871e-015 -2.8625e-014
rhumerus -45.5254 -12.1884 -70.1042
rradius 29.4292
rwrist -2.8298
rhand -16.7746 -26.784
rfingers 7.12502
rthumb 9.45286 -56.552
lclavicle -5.11871e-015 -2.8625e-014
lhumerus -38.0623 2.84358 87.1027
lradius 31.3333
lwrist 16.9126
lhand -20.687 13.71
lfingers 7.12502
lthumb 5.67652 43.614
rfemur -7.89955 4.24328 17.5757
rtibia 46.0677
rfoot -11.2724 23.907
rtoes 19.0023
lfemur -13.1969 -12.4398 -11.6993
ltibia 55.7899
lfoot -41.5783 1.85388
ltoes -28.7627
